<?xml version="1.0" encoding="UTF-8" ?>
<svg version="1.1" width="50" height="60" xmlns="http://www.w3.org/2000/svg" shape-rendering="crispEdges">
<rect x="17" y="20" width="1" height="1" fill="#4DBE90" />
<rect x="18" y="20" width="1" height="1" fill="#64E5B1" />
<rect x="23" y="20" width="1" height="1" fill="#CB6E77" />
<rect x="24" y="20" width="1" height="1" fill="#D95763" />
<rect x="16" y="21" width="1" height="1" fill="#4DBE90" />
<rect x="17" y="21" width="1" height="1" fill="#64E5B1" />
<rect x="18" y="21" width="1" height="1" fill="#4DBE90" />
<rect x="19" y="21" width="1" height="1" fill="#64E5B1" />
<rect x="23" y="21" width="1" height="1" fill="#4DBE90" />
<rect x="24" y="21" width="1" height="1" fill="#D95763" />
<rect x="13" y="22" width="1" height="1" fill="#4DBE90" />
<rect x="14" y="22" width="1" height="1" fill="#64E5B1" />
<rect x="15" y="22" width="1" height="1" fill="#4DBE90" />
<rect x="16" y="22" width="1" height="1" fill="#64E5B1" />
<rect x="17" y="22" width="1" height="1" fill="#4DBE90" />
<rect x="18" y="22" width="1" height="1" fill="#64E5B1" />
<rect x="19" y="22" width="1" height="1" fill="#CB6E77" />
<rect x="20" y="22" width="1" height="1" fill="#D95763" />
<rect x="21" y="22" width="1" height="1" fill="#64E5B1" />
<rect x="22" y="22" width="1" height="1" fill="#4DBE90" />
<rect x="23" y="22" width="1" height="1" fill="#4DBE90" />
<rect x="24" y="22" width="1" height="1" fill="#64E5B1" />
<rect x="29" y="22" width="1" height="1" fill="#4DBE90" />
<rect x="30" y="22" width="1" height="1" fill="#64E5B1" />
<rect x="33" y="22" width="1" height="1" fill="#CB6E77" />
<rect x="34" y="22" width="1" height="1" fill="#D95763" />
<rect x="12" y="23" width="1" height="1" fill="#3B936F" />
<rect x="13" y="23" width="1" height="1" fill="#4DBE90" />
<rect x="14" y="23" width="1" height="1" fill="#4DBE90" />
<rect x="15" y="23" width="1" height="1" fill="#4DBE90" />
<rect x="16" y="23" width="1" height="1" fill="#4DBE90" />
<rect x="17" y="23" width="1" height="1" fill="#4DBE90" />
<rect x="18" y="23" width="1" height="1" fill="#3B936F" />
<rect x="19" y="23" width="1" height="1" fill="#4DBE90" />
<rect x="20" y="23" width="1" height="1" fill="#CB6E77" />
<rect x="21" y="23" width="1" height="1" fill="#4DBE90" />
<rect x="22" y="23" width="1" height="1" fill="#4DBE90" />
<rect x="23" y="23" width="1" height="1" fill="#4DBE90" />
<rect x="24" y="23" width="1" height="1" fill="#4DBE90" />
<rect x="25" y="23" width="1" height="1" fill="#64E5B1" />
<rect x="28" y="23" width="1" height="1" fill="#4DBE90" />
<rect x="29" y="23" width="1" height="1" fill="#4DBE90" />
<rect x="30" y="23" width="1" height="1" fill="#4DBE90" />
<rect x="31" y="23" width="1" height="1" fill="#64E5B1" />
<rect x="33" y="23" width="1" height="1" fill="#64E5B1" />
<rect x="34" y="23" width="1" height="1" fill="#CB6E77" />
<rect x="11" y="24" width="1" height="1" fill="#4DBE90" />
<rect x="12" y="24" width="1" height="1" fill="#3B936F" />
<rect x="13" y="24" width="1" height="1" fill="#CB6E77" />
<rect x="14" y="24" width="1" height="1" fill="#4DBE90" />
<rect x="15" y="24" width="1" height="1" fill="#3B936F" />
<rect x="16" y="24" width="1" height="1" fill="#4DBE90" />
<rect x="17" y="24" width="1" height="1" fill="#4DBE90" />
<rect x="18" y="24" width="1" height="1" fill="#D95763" />
<rect x="19" y="24" width="1" height="1" fill="#3B936F" />
<rect x="20" y="24" width="1" height="1" fill="#4DBE90" />
<rect x="21" y="24" width="1" height="1" fill="#4DBE90" />
<rect x="22" y="24" width="1" height="1" fill="#4DBE90" />
<rect x="23" y="24" width="1" height="1" fill="#4DBE90" />
<rect x="24" y="24" width="1" height="1" fill="#CB6E77" />
<rect x="25" y="24" width="1" height="1" fill="#4DBE90" />
<rect x="26" y="24" width="1" height="1" fill="#64E5B1" />
<rect x="27" y="24" width="1" height="1" fill="#4DBE90" />
<rect x="28" y="24" width="1" height="1" fill="#4DBE90" />
<rect x="29" y="24" width="1" height="1" fill="#CB6E77" />
<rect x="30" y="24" width="1" height="1" fill="#4DBE90" />
<rect x="31" y="24" width="1" height="1" fill="#4DBE90" />
<rect x="32" y="24" width="1" height="1" fill="#64E5B1" />
<rect x="33" y="24" width="1" height="1" fill="#4DBE90" />
<rect x="34" y="24" width="1" height="1" fill="#4DBE90" />
<rect x="35" y="24" width="1" height="1" fill="#64E5B1" />
<rect x="36" y="24" width="1" height="1" fill="#4DBE90" />
<rect x="37" y="24" width="1" height="1" fill="#64E5B1" />
<rect x="38" y="24" width="1" height="1" fill="#64E5B1" />
<rect x="11" y="25" width="1" height="1" fill="#3B936F" />
<rect x="12" y="25" width="1" height="1" fill="#4DBE90" />
<rect x="13" y="25" width="1" height="1" fill="#D95763" />
<rect x="14" y="25" width="1" height="1" fill="#CB6E77" />
<rect x="15" y="25" width="1" height="1" fill="#4DBE90" />
<rect x="16" y="25" width="1" height="1" fill="#3B936F" />
<rect x="17" y="25" width="1" height="1" fill="#CB6E77" />
<rect x="18" y="25" width="1" height="1" fill="#D95763" />
<rect x="19" y="25" width="1" height="1" fill="#4DBE90" />
<rect x="20" y="25" width="1" height="1" fill="#4DBE90" />
<rect x="21" y="25" width="1" height="1" fill="#4DBE90" />
<rect x="22" y="25" width="1" height="1" fill="#3B936F" />
<rect x="23" y="25" width="1" height="1" fill="#D95763" />
<rect x="24" y="25" width="1" height="1" fill="#D95763" />
<rect x="25" y="25" width="1" height="1" fill="#4DBE90" />
<rect x="26" y="25" width="1" height="1" fill="#4DBE90" />
<rect x="27" y="25" width="1" height="1" fill="#4DBE90" />
<rect x="28" y="25" width="1" height="1" fill="#3B936F" />
<rect x="29" y="25" width="1" height="1" fill="#D95763" />
<rect x="30" y="25" width="1" height="1" fill="#CB6E77" />
<rect x="31" y="25" width="1" height="1" fill="#4DBE90" />
<rect x="32" y="25" width="1" height="1" fill="#4DBE90" />
<rect x="33" y="25" width="1" height="1" fill="#4DBE90" />
<rect x="34" y="25" width="1" height="1" fill="#64E5B1" />
<rect x="35" y="25" width="1" height="1" fill="#4DBE90" />
<rect x="36" y="25" width="1" height="1" fill="#4DBE90" />
<rect x="37" y="25" width="1" height="1" fill="#4DBE90" />
<rect x="38" y="25" width="1" height="1" fill="#4DBE90" />
<rect x="39" y="25" width="1" height="1" fill="#64E5B1" />
<rect x="12" y="26" width="1" height="1" fill="#3B936F" />
<rect x="13" y="26" width="1" height="1" fill="#4DBE90" />
<rect x="14" y="26" width="1" height="1" fill="#4DBE90" />
<rect x="15" y="26" width="1" height="1" fill="#4DBE90" />
<rect x="16" y="26" width="1" height="1" fill="#4DBE90" />
<rect x="17" y="26" width="1" height="1" fill="#3B936F" />
<rect x="18" y="26" width="1" height="1" fill="#4DBE90" />
<rect x="19" y="26" width="1" height="1" fill="#3B936F" />
<rect x="20" y="26" width="1" height="1" fill="#BEAFA0" />
<rect x="21" y="26" width="1" height="1" fill="#DCC7B2" />
<rect x="22" y="26" width="1" height="1" fill="#F6E1CB" />
<rect x="23" y="26" width="1" height="1" fill="#4DBE90" />
<rect x="24" y="26" width="1" height="1" fill="#3B936F" />
<rect x="25" y="26" width="1" height="1" fill="#4DBE90" />
<rect x="26" y="26" width="1" height="1" fill="#3B936F" />
<rect x="27" y="26" width="1" height="1" fill="#4DBE90" />
<rect x="28" y="26" width="1" height="1" fill="#4DBE90" />
<rect x="29" y="26" width="1" height="1" fill="#3B936F" />
<rect x="30" y="26" width="1" height="1" fill="#4DBE90" />
<rect x="31" y="26" width="1" height="1" fill="#4DBE90" />
<rect x="32" y="26" width="1" height="1" fill="#D95763" />
<rect x="33" y="26" width="1" height="1" fill="#4DBE90" />
<rect x="34" y="26" width="1" height="1" fill="#4DBE90" />
<rect x="35" y="26" width="1" height="1" fill="#4DBE90" />
<rect x="36" y="26" width="1" height="1" fill="#4DBE90" />
<rect x="37" y="26" width="1" height="1" fill="#D95763" />
<rect x="38" y="26" width="1" height="1" fill="#CB6E77" />
<rect x="39" y="26" width="1" height="1" fill="#4DBE90" />
<rect x="40" y="26" width="1" height="1" fill="#64E5B1" />
<rect x="13" y="27" width="1" height="1" fill="#3B936F" />
<rect x="14" y="27" width="1" height="1" fill="#4DBE90" />
<rect x="15" y="27" width="1" height="1" fill="#4DBE90" />
<rect x="16" y="27" width="1" height="1" fill="#4DBE90" />
<rect x="17" y="27" width="1" height="1" fill="#4DBE90" />
<rect x="18" y="27" width="1" height="1" fill="#4DBE90" />
<rect x="19" y="27" width="1" height="1" fill="#4DBE90" />
<rect x="20" y="27" width="1" height="1" fill="#3B936F" />
<rect x="21" y="27" width="1" height="1" fill="#BEAFA0" />
<rect x="22" y="27" width="1" height="1" fill="#DCC7B2" />
<rect x="23" y="27" width="1" height="1" fill="#F6E1CB" />
<rect x="24" y="27" width="1" height="1" fill="#4DBE90" />
<rect x="25" y="27" width="1" height="1" fill="#3B936F" />
<rect x="26" y="27" width="1" height="1" fill="#4DBE90" />
<rect x="27" y="27" width="1" height="1" fill="#3B936F" />
<rect x="28" y="27" width="1" height="1" fill="#4DBE90" />
<rect x="29" y="27" width="1" height="1" fill="#4DBE90" />
<rect x="30" y="27" width="1" height="1" fill="#4DBE90" />
<rect x="31" y="27" width="1" height="1" fill="#CB6E77" />
<rect x="32" y="27" width="1" height="1" fill="#CB6E77" />
<rect x="33" y="27" width="1" height="1" fill="#4DBE90" />
<rect x="34" y="27" width="1" height="1" fill="#F6E1CB" />
<rect x="35" y="27" width="1" height="1" fill="#4DBE90" />
<rect x="36" y="27" width="1" height="1" fill="#3B936F" />
<rect x="37" y="27" width="1" height="1" fill="#4DBE90" />
<rect x="38" y="27" width="1" height="1" fill="#D95763" />
<rect x="39" y="27" width="1" height="1" fill="#4DBE90" />
<rect x="40" y="27" width="1" height="1" fill="#4DBE90" />
<rect x="41" y="27" width="1" height="1" fill="#64E5B1" />
<rect x="13" y="28" width="1" height="1" fill="#4DBE90" />
<rect x="14" y="28" width="1" height="1" fill="#3B936F" />
<rect x="15" y="28" width="1" height="1" fill="#4DBE90" />
<rect x="16" y="28" width="1" height="1" fill="#3B936F" />
<rect x="17" y="28" width="1" height="1" fill="#4DBE90" />
<rect x="18" y="28" width="1" height="1" fill="#4DBE90" />
<rect x="19" y="28" width="1" height="1" fill="#CB6E77" />
<rect x="20" y="28" width="1" height="1" fill="#CB6E77" />
<rect x="22" y="28" width="1" height="1" fill="#BEAFA0" />
<rect x="23" y="28" width="1" height="1" fill="#DCC7B2" />
<rect x="24" y="28" width="1" height="1" fill="#F6E1CB" />
<rect x="28" y="28" width="1" height="1" fill="#3B936F" />
<rect x="29" y="28" width="1" height="1" fill="#4DBE90" />
<rect x="30" y="28" width="1" height="1" fill="#3B936F" />
<rect x="31" y="28" width="1" height="1" fill="#4DBE90" />
<rect x="32" y="28" width="1" height="1" fill="#3B936F" />
<rect x="33" y="28" width="1" height="1" fill="#BEAFA0" />
<rect x="34" y="28" width="1" height="1" fill="#DCC7B2" />
<rect x="35" y="28" width="1" height="1" fill="#F6E1CB" />
<rect x="36" y="28" width="1" height="1" fill="#4DBE90" />
<rect x="37" y="28" width="1" height="1" fill="#3B936F" />
<rect x="38" y="28" width="1" height="1" fill="#4DBE90" />
<rect x="39" y="28" width="1" height="1" fill="#4DBE90" />
<rect x="40" y="28" width="1" height="1" fill="#64E5B1" />
<rect x="41" y="28" width="1" height="1" fill="#4DBE90" />
<rect x="12" y="29" width="1" height="1" fill="#3B936F" />
<rect x="13" y="29" width="1" height="1" fill="#3B936F" />
<rect x="14" y="29" width="1" height="1" fill="#4DBE90" />
<rect x="15" y="29" width="1" height="1" fill="#4DBE90" />
<rect x="16" y="29" width="1" height="1" fill="#4DBE90" />
<rect x="17" y="29" width="1" height="1" fill="#3B936F" />
<rect x="18" y="29" width="1" height="1" fill="#4DBE90" />
<rect x="19" y="29" width="1" height="1" fill="#D95763" />
<rect x="20" y="29" width="1" height="1" fill="#4DBE90" />
<rect x="21" y="29" width="1" height="1" fill="#3B936F" />
<rect x="23" y="29" width="1" height="1" fill="#BEAFA0" />
<rect x="24" y="29" width="1" height="1" fill="#DCC7B2" />
<rect x="25" y="29" width="1" height="1" fill="#DCC7B2" />
<rect x="26" y="29" width="1" height="1" fill="#F6E1CB" />
<rect x="29" y="29" width="1" height="1" fill="#3B936F" />
<rect x="30" y="29" width="1" height="1" fill="#4DBE90" />
<rect x="31" y="29" width="1" height="1" fill="#3B936F" />
<rect x="32" y="29" width="1" height="1" fill="#BEAFA0" />
<rect x="33" y="29" width="1" height="1" fill="#DCC7B2" />
<rect x="34" y="29" width="1" height="1" fill="#DCC7B2" />
<rect x="35" y="29" width="1" height="1" fill="#4DBE90" />
<rect x="36" y="29" width="1" height="1" fill="#3B936F" />
<rect x="37" y="29" width="1" height="1" fill="#4DBE90" />
<rect x="38" y="29" width="1" height="1" fill="#4DBE90" />
<rect x="39" y="29" width="1" height="1" fill="#4DBE90" />
<rect x="40" y="29" width="1" height="1" fill="#4DBE90" />
<rect x="11" y="30" width="1" height="1" fill="#3B936F" />
<rect x="12" y="30" width="1" height="1" fill="#4DBE90" />
<rect x="13" y="30" width="1" height="1" fill="#4DBE90" />
<rect x="14" y="30" width="1" height="1" fill="#CB6E77" />
<rect x="15" y="30" width="1" height="1" fill="#4DBE90" />
<rect x="16" y="30" width="1" height="1" fill="#3B936F" />
<rect x="17" y="30" width="1" height="1" fill="#4DBE90" />
<rect x="18" y="30" width="1" height="1" fill="#3B936F" />
<rect x="19" y="30" width="1" height="1" fill="#4DBE90" />
<rect x="20" y="30" width="1" height="1" fill="#3B936F" />
<rect x="21" y="30" width="1" height="1" fill="#4DBE90" />
<rect x="22" y="30" width="1" height="1" fill="#3B936F" />
<rect x="24" y="30" width="1" height="1" fill="#BEAFA0" />
<rect x="25" y="30" width="1" height="1" fill="#DCC7B2" />
<rect x="26" y="30" width="1" height="1" fill="#DCC7B2" />
<rect x="27" y="30" width="1" height="1" fill="#F6E1CB" />
<rect x="31" y="30" width="1" height="1" fill="#BEAFA0" />
<rect x="32" y="30" width="1" height="1" fill="#DCC7B2" />
<rect x="33" y="30" width="1" height="1" fill="#DCC7B2" />
<rect x="34" y="30" width="1" height="1" fill="#4DBE90" />
<rect x="35" y="30" width="1" height="1" fill="#3B936F" />
<rect x="36" y="30" width="1" height="1" fill="#4DBE90" />
<rect x="37" y="30" width="1" height="1" fill="#4DBE90" />
<rect x="38" y="30" width="1" height="1" fill="#4DBE90" />
<rect x="39" y="30" width="1" height="1" fill="#3B936F" />
<rect x="11" y="31" width="1" height="1" fill="#3B936F" />
<rect x="12" y="31" width="1" height="1" fill="#3B936F" />
<rect x="13" y="31" width="1" height="1" fill="#3B936F" />
<rect x="14" y="31" width="1" height="1" fill="#D95763" />
<rect x="15" y="31" width="1" height="1" fill="#4DBE90" />
<rect x="16" y="31" width="1" height="1" fill="#4DBE90" />
<rect x="17" y="31" width="1" height="1" fill="#3B936F" />
<rect x="18" y="31" width="1" height="1" fill="#4DBE90" />
<rect x="19" y="31" width="1" height="1" fill="#3B936F" />
<rect x="20" y="31" width="1" height="1" fill="#4DBE90" />
<rect x="21" y="31" width="1" height="1" fill="#4DBE90" />
<rect x="22" y="31" width="1" height="1" fill="#3B936F" />
<rect x="25" y="31" width="1" height="1" fill="#BEAFA0" />
<rect x="26" y="31" width="1" height="1" fill="#DCC7B2" />
<rect x="27" y="31" width="1" height="1" fill="#DCC7B2" />
<rect x="28" y="31" width="1" height="1" fill="#F6E1CB" />
<rect x="31" y="31" width="1" height="1" fill="#BEAFA0" />
<rect x="32" y="31" width="1" height="1" fill="#DCC7B2" />
<rect x="33" y="31" width="1" height="1" fill="#3B936F" />
<rect x="34" y="31" width="1" height="1" fill="#4DBE90" />
<rect x="35" y="31" width="1" height="1" fill="#4DBE90" />
<rect x="36" y="31" width="1" height="1" fill="#4DBE90" />
<rect x="37" y="31" width="1" height="1" fill="#3B936F" />
<rect x="38" y="31" width="1" height="1" fill="#3B936F" />
<rect x="12" y="32" width="1" height="1" fill="#3B936F" />
<rect x="14" y="32" width="1" height="1" fill="#3B936F" />
<rect x="15" y="32" width="1" height="1" fill="#3B936F" />
<rect x="16" y="32" width="1" height="1" fill="#4DBE90" />
<rect x="17" y="32" width="1" height="1" fill="#4DBE90" />
<rect x="18" y="32" width="1" height="1" fill="#3B936F" />
<rect x="19" y="32" width="1" height="1" fill="#4DBE90" />
<rect x="20" y="32" width="1" height="1" fill="#4DBE90" />
<rect x="21" y="32" width="1" height="1" fill="#3B936F" />
<rect x="26" y="32" width="1" height="1" fill="#BEAFA0" />
<rect x="27" y="32" width="1" height="1" fill="#DCC7B2" />
<rect x="28" y="32" width="1" height="1" fill="#DCC7B2" />
<rect x="30" y="32" width="1" height="1" fill="#BEAFA0" />
<rect x="31" y="32" width="1" height="1" fill="#DCC7B2" />
<rect x="32" y="32" width="1" height="1" fill="#F6E1CB" />
<rect x="33" y="32" width="1" height="1" fill="#3B936F" />
<rect x="34" y="32" width="1" height="1" fill="#3B936F" />
<rect x="35" y="32" width="1" height="1" fill="#4DBE90" />
<rect x="36" y="32" width="1" height="1" fill="#CB6E77" />
<rect x="15" y="33" width="1" height="1" fill="#3B936F" />
<rect x="16" y="33" width="1" height="1" fill="#3B936F" />
<rect x="19" y="33" width="1" height="1" fill="#3B936F" />
<rect x="20" y="33" width="1" height="1" fill="#4DBE90" />
<rect x="27" y="33" width="1" height="1" fill="#BEAFA0" />
<rect x="28" y="33" width="1" height="1" fill="#DCC7B2" />
<rect x="29" y="33" width="1" height="1" fill="#DCC7B2" />
<rect x="30" y="33" width="1" height="1" fill="#DCC7B2" />
<rect x="31" y="33" width="1" height="1" fill="#DCC7B2" />
<rect x="33" y="33" width="1" height="1" fill="#3B936F" />
<rect x="34" y="33" width="1" height="1" fill="#3B936F" />
<rect x="35" y="33" width="1" height="1" fill="#D95763" />
<rect x="36" y="33" width="1" height="1" fill="#CB6E77" />
<rect x="27" y="34" width="1" height="1" fill="#BEAFA0" />
<rect x="28" y="34" width="1" height="1" fill="#DCC7B2" />
<rect x="29" y="34" width="1" height="1" fill="#DCC7B2" />
<rect x="30" y="34" width="1" height="1" fill="#DCC7B2" />
<rect x="31" y="34" width="1" height="1" fill="#F6E1CB" />
<rect x="26" y="35" width="1" height="1" fill="#BEAFA0" />
<rect x="27" y="35" width="1" height="1" fill="#DCC7B2" />
<rect x="28" y="35" width="1" height="1" fill="#DCC7B2" />
<rect x="29" y="35" width="1" height="1" fill="#DCC7B2" />
<rect x="30" y="35" width="1" height="1" fill="#F6E1CB" />
<rect x="25" y="36" width="1" height="1" fill="#BEAFA0" />
<rect x="26" y="36" width="1" height="1" fill="#DCC7B2" />
<rect x="27" y="36" width="1" height="1" fill="#DCC7B2" />
<rect x="28" y="36" width="1" height="1" fill="#DCC7B2" />
<rect x="29" y="36" width="1" height="1" fill="#F6E1CB" />
<rect x="25" y="37" width="1" height="1" fill="#BEAFA0" />
<rect x="26" y="37" width="1" height="1" fill="#DCC7B2" />
<rect x="27" y="37" width="1" height="1" fill="#DCC7B2" />
<rect x="28" y="37" width="1" height="1" fill="#F6E1CB" />
<rect x="25" y="38" width="1" height="1" fill="#BEAFA0" />
<rect x="26" y="38" width="1" height="1" fill="#DCC7B2" />
<rect x="27" y="38" width="1" height="1" fill="#DCC7B2" />
<rect x="28" y="38" width="1" height="1" fill="#F6E1CB" />
<rect x="17" y="39" width="1" height="1" fill="#663931" />
<rect x="18" y="39" width="1" height="1" fill="#663931" />
<rect x="19" y="39" width="1" height="1" fill="#663931" />
<rect x="20" y="39" width="1" height="1" fill="#663931" />
<rect x="21" y="39" width="1" height="1" fill="#663931" />
<rect x="22" y="39" width="1" height="1" fill="#663931" />
<rect x="23" y="39" width="1" height="1" fill="#663931" />
<rect x="24" y="39" width="1" height="1" fill="#BEAFA0" />
<rect x="25" y="39" width="1" height="1" fill="#BEAFA0" />
<rect x="26" y="39" width="1" height="1" fill="#DCC7B2" />
<rect x="27" y="39" width="1" height="1" fill="#DCC7B2" />
<rect x="28" y="39" width="1" height="1" fill="#F6E1CB" />
<rect x="29" y="39" width="1" height="1" fill="#663931" />
<rect x="30" y="39" width="1" height="1" fill="#663931" />
<rect x="31" y="39" width="1" height="1" fill="#663931" />
<rect x="32" y="39" width="1" height="1" fill="#663931" />
<rect x="33" y="39" width="1" height="1" fill="#663931" />
<rect x="34" y="39" width="1" height="1" fill="#663931" />
<rect x="16" y="40" width="1" height="1" fill="#663931" />
<rect x="17" y="40" width="1" height="1" fill="#663931" />
<rect x="18" y="40" width="1" height="1" fill="#794840" />
<rect x="19" y="40" width="1" height="1" fill="#663931" />
<rect x="20" y="40" width="1" height="1" fill="#663931" />
<rect x="21" y="40" width="1" height="1" fill="#663931" />
<rect x="22" y="40" width="1" height="1" fill="#3F3F74" />
<rect x="23" y="40" width="1" height="1" fill="#BEAFA0" />
<rect x="24" y="40" width="1" height="1" fill="#BEAFA0" />
<rect x="25" y="40" width="1" height="1" fill="#DCC7B2" />
<rect x="26" y="40" width="1" height="1" fill="#DCC7B2" />
<rect x="27" y="40" width="1" height="1" fill="#DCC7B2" />
<rect x="28" y="40" width="1" height="1" fill="#F6E1CB" />
<rect x="29" y="40" width="1" height="1" fill="#306082" />
<rect x="30" y="40" width="1" height="1" fill="#663931" />
<rect x="31" y="40" width="1" height="1" fill="#663931" />
<rect x="32" y="40" width="1" height="1" fill="#663931" />
<rect x="33" y="40" width="1" height="1" fill="#794840" />
<rect x="34" y="40" width="1" height="1" fill="#663931" />
<rect x="35" y="40" width="1" height="1" fill="#663931" />
<rect x="15" y="41" width="1" height="1" fill="#663931" />
<rect x="16" y="41" width="1" height="1" fill="#663931" />
<rect x="17" y="41" width="1" height="1" fill="#976E45" />
<rect x="18" y="41" width="1" height="1" fill="#794840" />
<rect x="19" y="41" width="1" height="1" fill="#794840" />
<rect x="20" y="41" width="1" height="1" fill="#663931" />
<rect x="21" y="41" width="1" height="1" fill="#3F3F74" />
<rect x="22" y="41" width="1" height="1" fill="#BEAFA0" />
<rect x="23" y="41" width="1" height="1" fill="#BEAFA0" />
<rect x="24" y="41" width="1" height="1" fill="#BEAFA0" />
<rect x="25" y="41" width="1" height="1" fill="#BEAFA0" />
<rect x="26" y="41" width="1" height="1" fill="#DCC7B2" />
<rect x="27" y="41" width="1" height="1" fill="#DCC7B2" />
<rect x="28" y="41" width="1" height="1" fill="#DCC7B2" />
<rect x="29" y="41" width="1" height="1" fill="#DCC7B2" />
<rect x="30" y="41" width="1" height="1" fill="#306082" />
<rect x="31" y="41" width="1" height="1" fill="#663931" />
<rect x="32" y="41" width="1" height="1" fill="#794840" />
<rect x="33" y="41" width="1" height="1" fill="#BA8B5B" />
<rect x="34" y="41" width="1" height="1" fill="#BA8B5B" />
<rect x="35" y="41" width="1" height="1" fill="#663931" />
<rect x="36" y="41" width="1" height="1" fill="#663931" />
<rect x="14" y="42" width="1" height="1" fill="#663931" />
<rect x="15" y="42" width="1" height="1" fill="#663931" />
<rect x="16" y="42" width="1" height="1" fill="#976E45" />
<rect x="17" y="42" width="1" height="1" fill="#976E45" />
<rect x="18" y="42" width="1" height="1" fill="#976E45" />
<rect x="19" y="42" width="1" height="1" fill="#794840" />
<rect x="20" y="42" width="1" height="1" fill="#663931" />
<rect x="21" y="42" width="1" height="1" fill="#663931" />
<rect x="22" y="42" width="1" height="1" fill="#3F3F74" />
<rect x="23" y="42" width="1" height="1" fill="#BEAFA0" />
<rect x="24" y="42" width="1" height="1" fill="#BEAFA0" />
<rect x="25" y="42" width="1" height="1" fill="#DCC7B2" />
<rect x="26" y="42" width="1" height="1" fill="#DCC7B2" />
<rect x="27" y="42" width="1" height="1" fill="#DCC7B2" />
<rect x="28" y="42" width="1" height="1" fill="#DCC7B2" />
<rect x="29" y="42" width="1" height="1" fill="#306082" />
<rect x="30" y="42" width="1" height="1" fill="#663931" />
<rect x="31" y="42" width="1" height="1" fill="#663931" />
<rect x="32" y="42" width="1" height="1" fill="#794840" />
<rect x="33" y="42" width="1" height="1" fill="#BA8B5B" />
<rect x="34" y="42" width="1" height="1" fill="#976E45" />
<rect x="35" y="42" width="1" height="1" fill="#BA8B5B" />
<rect x="36" y="42" width="1" height="1" fill="#663931" />
<rect x="37" y="42" width="1" height="1" fill="#663931" />
<rect x="13" y="43" width="1" height="1" fill="#663931" />
<rect x="14" y="43" width="1" height="1" fill="#663931" />
<rect x="15" y="43" width="1" height="1" fill="#794840" />
<rect x="16" y="43" width="1" height="1" fill="#976E45" />
<rect x="17" y="43" width="1" height="1" fill="#976E45" />
<rect x="18" y="43" width="1" height="1" fill="#976E45" />
<rect x="19" y="43" width="1" height="1" fill="#794840" />
<rect x="20" y="43" width="1" height="1" fill="#794840" />
<rect x="21" y="43" width="1" height="1" fill="#663931" />
<rect x="22" y="43" width="1" height="1" fill="#663931" />
<rect x="23" y="43" width="1" height="1" fill="#3F3F74" />
<rect x="24" y="43" width="1" height="1" fill="#306082" />
<rect x="25" y="43" width="1" height="1" fill="#3F3F74" />
<rect x="26" y="43" width="1" height="1" fill="#306082" />
<rect x="27" y="43" width="1" height="1" fill="#306082" />
<rect x="28" y="43" width="1" height="1" fill="#306082" />
<rect x="29" y="43" width="1" height="1" fill="#663931" />
<rect x="30" y="43" width="1" height="1" fill="#663931" />
<rect x="31" y="43" width="1" height="1" fill="#794840" />
<rect x="32" y="43" width="1" height="1" fill="#BA8B5B" />
<rect x="33" y="43" width="1" height="1" fill="#976E45" />
<rect x="34" y="43" width="1" height="1" fill="#BA8B5B" />
<rect x="35" y="43" width="1" height="1" fill="#976E45" />
<rect x="36" y="43" width="1" height="1" fill="#BA8B5B" />
<rect x="37" y="43" width="1" height="1" fill="#663931" />
<rect x="38" y="43" width="1" height="1" fill="#663931" />
<rect x="13" y="44" width="1" height="1" fill="#663931" />
<rect x="14" y="44" width="1" height="1" fill="#794840" />
<rect x="15" y="44" width="1" height="1" fill="#794840" />
<rect x="16" y="44" width="1" height="1" fill="#976E45" />
<rect x="17" y="44" width="1" height="1" fill="#976E45" />
<rect x="18" y="44" width="1" height="1" fill="#976E45" />
<rect x="19" y="44" width="1" height="1" fill="#976E45" />
<rect x="20" y="44" width="1" height="1" fill="#794840" />
<rect x="21" y="44" width="1" height="1" fill="#794840" />
<rect x="22" y="44" width="1" height="1" fill="#663931" />
<rect x="23" y="44" width="1" height="1" fill="#663931" />
<rect x="24" y="44" width="1" height="1" fill="#663931" />
<rect x="25" y="44" width="1" height="1" fill="#663931" />
<rect x="26" y="44" width="1" height="1" fill="#663931" />
<rect x="27" y="44" width="1" height="1" fill="#663931" />
<rect x="28" y="44" width="1" height="1" fill="#663931" />
<rect x="29" y="44" width="1" height="1" fill="#663931" />
<rect x="30" y="44" width="1" height="1" fill="#794840" />
<rect x="31" y="44" width="1" height="1" fill="#976E45" />
<rect x="32" y="44" width="1" height="1" fill="#976E45" />
<rect x="33" y="44" width="1" height="1" fill="#BA8B5B" />
<rect x="34" y="44" width="1" height="1" fill="#976E45" />
<rect x="35" y="44" width="1" height="1" fill="#BA8B5B" />
<rect x="36" y="44" width="1" height="1" fill="#976E45" />
<rect x="37" y="44" width="1" height="1" fill="#BA8B5B" />
<rect x="38" y="44" width="1" height="1" fill="#663931" />
<rect x="13" y="45" width="1" height="1" fill="#663931" />
<rect x="14" y="45" width="1" height="1" fill="#794840" />
<rect x="15" y="45" width="1" height="1" fill="#794840" />
<rect x="16" y="45" width="1" height="1" fill="#794840" />
<rect x="17" y="45" width="1" height="1" fill="#976E45" />
<rect x="18" y="45" width="1" height="1" fill="#976E45" />
<rect x="19" y="45" width="1" height="1" fill="#976E45" />
<rect x="20" y="45" width="1" height="1" fill="#976E45" />
<rect x="21" y="45" width="1" height="1" fill="#976E45" />
<rect x="22" y="45" width="1" height="1" fill="#794840" />
<rect x="23" y="45" width="1" height="1" fill="#794840" />
<rect x="24" y="45" width="1" height="1" fill="#794840" />
<rect x="25" y="45" width="1" height="1" fill="#794840" />
<rect x="26" y="45" width="1" height="1" fill="#794840" />
<rect x="27" y="45" width="1" height="1" fill="#794840" />
<rect x="28" y="45" width="1" height="1" fill="#794840" />
<rect x="29" y="45" width="1" height="1" fill="#794840" />
<rect x="30" y="45" width="1" height="1" fill="#976E45" />
<rect x="31" y="45" width="1" height="1" fill="#976E45" />
<rect x="32" y="45" width="1" height="1" fill="#976E45" />
<rect x="33" y="45" width="1" height="1" fill="#976E45" />
<rect x="34" y="45" width="1" height="1" fill="#BA8B5B" />
<rect x="35" y="45" width="1" height="1" fill="#976E45" />
<rect x="36" y="45" width="1" height="1" fill="#BA8B5B" />
<rect x="37" y="45" width="1" height="1" fill="#BA8B5B" />
<rect x="38" y="45" width="1" height="1" fill="#663931" />
<rect x="13" y="46" width="1" height="1" fill="#663931" />
<rect x="14" y="46" width="1" height="1" fill="#794840" />
<rect x="15" y="46" width="1" height="1" fill="#794840" />
<rect x="16" y="46" width="1" height="1" fill="#794840" />
<rect x="17" y="46" width="1" height="1" fill="#976E45" />
<rect x="18" y="46" width="1" height="1" fill="#976E45" />
<rect x="19" y="46" width="1" height="1" fill="#976E45" />
<rect x="20" y="46" width="1" height="1" fill="#976E45" />
<rect x="21" y="46" width="1" height="1" fill="#976E45" />
<rect x="22" y="46" width="1" height="1" fill="#976E45" />
<rect x="23" y="46" width="1" height="1" fill="#976E45" />
<rect x="24" y="46" width="1" height="1" fill="#976E45" />
<rect x="25" y="46" width="1" height="1" fill="#976E45" />
<rect x="26" y="46" width="1" height="1" fill="#976E45" />
<rect x="27" y="46" width="1" height="1" fill="#976E45" />
<rect x="28" y="46" width="1" height="1" fill="#976E45" />
<rect x="29" y="46" width="1" height="1" fill="#976E45" />
<rect x="30" y="46" width="1" height="1" fill="#976E45" />
<rect x="31" y="46" width="1" height="1" fill="#976E45" />
<rect x="32" y="46" width="1" height="1" fill="#976E45" />
<rect x="33" y="46" width="1" height="1" fill="#976E45" />
<rect x="34" y="46" width="1" height="1" fill="#976E45" />
<rect x="35" y="46" width="1" height="1" fill="#BA8B5B" />
<rect x="36" y="46" width="1" height="1" fill="#976E45" />
<rect x="37" y="46" width="1" height="1" fill="#BA8B5B" />
<rect x="38" y="46" width="1" height="1" fill="#663931" />
<rect x="13" y="47" width="1" height="1" fill="#663931" />
<rect x="14" y="47" width="1" height="1" fill="#794840" />
<rect x="15" y="47" width="1" height="1" fill="#794840" />
<rect x="16" y="47" width="1" height="1" fill="#794840" />
<rect x="17" y="47" width="1" height="1" fill="#794840" />
<rect x="18" y="47" width="1" height="1" fill="#976E45" />
<rect x="19" y="47" width="1" height="1" fill="#976E45" />
<rect x="20" y="47" width="1" height="1" fill="#976E45" />
<rect x="21" y="47" width="1" height="1" fill="#976E45" />
<rect x="22" y="47" width="1" height="1" fill="#976E45" />
<rect x="23" y="47" width="1" height="1" fill="#976E45" />
<rect x="24" y="47" width="1" height="1" fill="#976E45" />
<rect x="25" y="47" width="1" height="1" fill="#976E45" />
<rect x="26" y="47" width="1" height="1" fill="#976E45" />
<rect x="27" y="47" width="1" height="1" fill="#976E45" />
<rect x="28" y="47" width="1" height="1" fill="#976E45" />
<rect x="29" y="47" width="1" height="1" fill="#976E45" />
<rect x="30" y="47" width="1" height="1" fill="#976E45" />
<rect x="31" y="47" width="1" height="1" fill="#976E45" />
<rect x="32" y="47" width="1" height="1" fill="#976E45" />
<rect x="33" y="47" width="1" height="1" fill="#976E45" />
<rect x="34" y="47" width="1" height="1" fill="#976E45" />
<rect x="35" y="47" width="1" height="1" fill="#976E45" />
<rect x="36" y="47" width="1" height="1" fill="#976E45" />
<rect x="37" y="47" width="1" height="1" fill="#794840" />
<rect x="38" y="47" width="1" height="1" fill="#663931" />
<rect x="13" y="48" width="1" height="1" fill="#663931" />
<rect x="14" y="48" width="1" height="1" fill="#663931" />
<rect x="15" y="48" width="1" height="1" fill="#794840" />
<rect x="16" y="48" width="1" height="1" fill="#794840" />
<rect x="17" y="48" width="1" height="1" fill="#794840" />
<rect x="18" y="48" width="1" height="1" fill="#794840" />
<rect x="19" y="48" width="1" height="1" fill="#794840" />
<rect x="20" y="48" width="1" height="1" fill="#976E45" />
<rect x="21" y="48" width="1" height="1" fill="#794840" />
<rect x="22" y="48" width="1" height="1" fill="#976E45" />
<rect x="23" y="48" width="1" height="1" fill="#794840" />
<rect x="24" y="48" width="1" height="1" fill="#976E45" />
<rect x="25" y="48" width="1" height="1" fill="#794840" />
<rect x="26" y="48" width="1" height="1" fill="#976E45" />
<rect x="27" y="48" width="1" height="1" fill="#794840" />
<rect x="28" y="48" width="1" height="1" fill="#976E45" />
<rect x="29" y="48" width="1" height="1" fill="#794840" />
<rect x="30" y="48" width="1" height="1" fill="#976E45" />
<rect x="31" y="48" width="1" height="1" fill="#794840" />
<rect x="32" y="48" width="1" height="1" fill="#976E45" />
<rect x="33" y="48" width="1" height="1" fill="#794840" />
<rect x="34" y="48" width="1" height="1" fill="#976E45" />
<rect x="35" y="48" width="1" height="1" fill="#976E45" />
<rect x="36" y="48" width="1" height="1" fill="#794840" />
<rect x="37" y="48" width="1" height="1" fill="#663931" />
<rect x="38" y="48" width="1" height="1" fill="#663931" />
<rect x="14" y="49" width="1" height="1" fill="#663931" />
<rect x="15" y="49" width="1" height="1" fill="#663931" />
<rect x="16" y="49" width="1" height="1" fill="#794840" />
<rect x="17" y="49" width="1" height="1" fill="#794840" />
<rect x="18" y="49" width="1" height="1" fill="#794840" />
<rect x="19" y="49" width="1" height="1" fill="#794840" />
<rect x="20" y="49" width="1" height="1" fill="#794840" />
<rect x="21" y="49" width="1" height="1" fill="#794840" />
<rect x="22" y="49" width="1" height="1" fill="#794840" />
<rect x="23" y="49" width="1" height="1" fill="#794840" />
<rect x="24" y="49" width="1" height="1" fill="#794840" />
<rect x="25" y="49" width="1" height="1" fill="#794840" />
<rect x="26" y="49" width="1" height="1" fill="#794840" />
<rect x="27" y="49" width="1" height="1" fill="#794840" />
<rect x="28" y="49" width="1" height="1" fill="#794840" />
<rect x="29" y="49" width="1" height="1" fill="#794840" />
<rect x="30" y="49" width="1" height="1" fill="#794840" />
<rect x="31" y="49" width="1" height="1" fill="#976E45" />
<rect x="32" y="49" width="1" height="1" fill="#794840" />
<rect x="33" y="49" width="1" height="1" fill="#976E45" />
<rect x="34" y="49" width="1" height="1" fill="#794840" />
<rect x="35" y="49" width="1" height="1" fill="#794840" />
<rect x="36" y="49" width="1" height="1" fill="#663931" />
<rect x="37" y="49" width="1" height="1" fill="#663931" />
<rect x="15" y="50" width="1" height="1" fill="#663931" />
<rect x="16" y="50" width="1" height="1" fill="#663931" />
<rect x="17" y="50" width="1" height="1" fill="#794840" />
<rect x="18" y="50" width="1" height="1" fill="#794840" />
<rect x="19" y="50" width="1" height="1" fill="#794840" />
<rect x="20" y="50" width="1" height="1" fill="#794840" />
<rect x="21" y="50" width="1" height="1" fill="#794840" />
<rect x="22" y="50" width="1" height="1" fill="#794840" />
<rect x="23" y="50" width="1" height="1" fill="#794840" />
<rect x="24" y="50" width="1" height="1" fill="#794840" />
<rect x="25" y="50" width="1" height="1" fill="#794840" />
<rect x="26" y="50" width="1" height="1" fill="#794840" />
<rect x="27" y="50" width="1" height="1" fill="#794840" />
<rect x="28" y="50" width="1" height="1" fill="#794840" />
<rect x="29" y="50" width="1" height="1" fill="#794840" />
<rect x="30" y="50" width="1" height="1" fill="#794840" />
<rect x="31" y="50" width="1" height="1" fill="#794840" />
<rect x="32" y="50" width="1" height="1" fill="#976E45" />
<rect x="33" y="50" width="1" height="1" fill="#794840" />
<rect x="34" y="50" width="1" height="1" fill="#794840" />
<rect x="35" y="50" width="1" height="1" fill="#663931" />
<rect x="36" y="50" width="1" height="1" fill="#663931" />
<rect x="16" y="51" width="1" height="1" fill="#663931" />
<rect x="17" y="51" width="1" height="1" fill="#663931" />
<rect x="18" y="51" width="1" height="1" fill="#794840" />
<rect x="19" y="51" width="1" height="1" fill="#794840" />
<rect x="20" y="51" width="1" height="1" fill="#794840" />
<rect x="21" y="51" width="1" height="1" fill="#794840" />
<rect x="22" y="51" width="1" height="1" fill="#794840" />
<rect x="23" y="51" width="1" height="1" fill="#794840" />
<rect x="24" y="51" width="1" height="1" fill="#794840" />
<rect x="25" y="51" width="1" height="1" fill="#794840" />
<rect x="26" y="51" width="1" height="1" fill="#794840" />
<rect x="27" y="51" width="1" height="1" fill="#794840" />
<rect x="28" y="51" width="1" height="1" fill="#794840" />
<rect x="29" y="51" width="1" height="1" fill="#794840" />
<rect x="30" y="51" width="1" height="1" fill="#794840" />
<rect x="31" y="51" width="1" height="1" fill="#794840" />
<rect x="32" y="51" width="1" height="1" fill="#794840" />
<rect x="33" y="51" width="1" height="1" fill="#794840" />
<rect x="34" y="51" width="1" height="1" fill="#663931" />
<rect x="35" y="51" width="1" height="1" fill="#663931" />
<rect x="17" y="52" width="1" height="1" fill="#663931" />
<rect x="18" y="52" width="1" height="1" fill="#663931" />
<rect x="19" y="52" width="1" height="1" fill="#663931" />
<rect x="20" y="52" width="1" height="1" fill="#663931" />
<rect x="21" y="52" width="1" height="1" fill="#663931" />
<rect x="22" y="52" width="1" height="1" fill="#663931" />
<rect x="23" y="52" width="1" height="1" fill="#663931" />
<rect x="24" y="52" width="1" height="1" fill="#663931" />
<rect x="25" y="52" width="1" height="1" fill="#663931" />
<rect x="26" y="52" width="1" height="1" fill="#663931" />
<rect x="27" y="52" width="1" height="1" fill="#663931" />
<rect x="28" y="52" width="1" height="1" fill="#663931" />
<rect x="29" y="52" width="1" height="1" fill="#663931" />
<rect x="30" y="52" width="1" height="1" fill="#663931" />
<rect x="31" y="52" width="1" height="1" fill="#663931" />
<rect x="32" y="52" width="1" height="1" fill="#663931" />
<rect x="33" y="52" width="1" height="1" fill="#663931" />
<rect x="34" y="52" width="1" height="1" fill="#663931" />
</svg>